<svg width="256" height="256" viewBox="0 0 256 256" fill="none" xmlns="http://www.w3.org/2000/svg">
<path d="M234.667 256C228.267 256 224 253.867 219.733 249.6L6.4 36.2667C-2.13333 27.7333 -2.13333 14.9333 6.4 6.4C14.9333 -2.13333 27.7333 -2.13333 36.2667 6.4L249.6 219.733C258.133 228.267 258.133 241.067 249.6 249.6C245.333 253.867 241.067 256 234.667 256Z" fill="#8750F7"/>
<path d="M234.667 256H42.6666C29.8666 256 21.3333 247.467 21.3333 234.667C21.3333 221.867 29.8666 213.334 42.6666 213.334H213.333V42.6668C213.333 29.8668 221.867 21.3335 234.667 21.3335C247.467 21.3335 256 29.8668 256 42.6668V234.667C256 247.467 247.467 256 234.667 256Z" fill="#8750F7"/>
</svg>
